<svg xmlns="http://www.w3.org/2000/svg" viewBox="0 0 420 80" role="img" aria-labelledby="title desc">
  <title id="title">Football EyeQ Wordmark</title>
  <desc id="desc">Wordmark for Football EyeQ featuring a stylized ball icon and bold typography.</desc>
  <defs>
    <linearGradient id="accent" x1="0%" y1="0%" x2="100%" y2="0%">
      <stop offset="0%" stop-color="#b5121b" />
      <stop offset="100%" stop-color="#82101a" />
    </linearGradient>
  </defs>
  <g fill="none" stroke="url(#accent)" stroke-width="4" stroke-linecap="round" stroke-linejoin="round" transform="translate(16 10)">
    <circle cx="28" cy="30" r="22" />
    <polygon points="28,10 18,18 22,30 34,30 38,18" />
    <line x1="22" y1="30" x2="16" y2="42" />
    <line x1="34" y1="30" x2="40" y2="42" />
    <line x1="28" y1="34" x2="28" y2="50" />
    <path d="M16 42c3.5 5 10.5 8.5 14 12" />
    <path d="M40 42c-3.5 5-10.5 8.5-14 12" />
    <path d="M50 10c16 10.5 16 40 0 50" />
    <path d="M2 18h18M2 30h22M2 42h18" />
  </g>
  <g fill="url(#accent)" transform="translate(88 16)">
    <path d="M0 44V0h46v10H12v8h32v10H12v16H0Z" />
    <path d="M60 44V0h46v10H72v8h32v10H72v16H60Z" />
    <path d="M118 44V0h14v34h24v10h-38Z" />
    <path d="M164 44V0h14v34h24v10h-38Z" />
    <path d="M220.5 44.5c-14.8 0-25.5-10.4-25.5-22.5S205.7-.5 220.5-.5s25.5 10.4 25.5 22.5-10.7 22.5-25.5 22.5Zm0-10c7.2 0 11.5-5.4 11.5-12.5S227.7 9.5 220.5 9.5 209 14.9 209 22s4.3 12.5 11.5 12.5Z" />
    <path d="M252 44V0h13.5L282 24 298.5 0H312v44h-14V24l-15.5 22H276L261 24v20h-9Z" />
    <path d="M332 44 313 0h14l12.2 30.8L351.5 0H364l-19 44h-13Z" />
    <path d="M372 44V0h14v12h12V0h14v44h-14V26h-12v18h-14Z" />
  </g>
  <g fill="#111" transform="translate(88 16)">
    <path d="M0 68V54h36c3.5 0 6-2 6-4.7 0-2.6-2.5-4.3-6-4.3H0V33h35.5C48.8 33 58 40 58 49c0 8.4-8.5 19-22.5 19H0Z" />
    <path d="M87.5 68c-16 0-27.5-9.5-27.5-23C60 31.4 71.5 22 87.5 22S115 31.4 115 45c0 13.5-11.5 23-27.5 23Zm0-11c8.2 0 13.5-4.7 13.5-12s-5.3-12-13.5-12S74 37.6 74 45s5.3 12 13.5 12Z" />
    <path d="M152 68h-14l-12.5-18.2V68H112V22h14v17.6L138 22h15l-15.2 20.5L152 68Z" />
  </g>
</svg>
