
		<svg xmlns="http://www.w3.org/2000/svg" xmlns:xlink="http://www.w3.org/1999/xlink" version="1.1" width="3058.4225900681595" height="581.3047711781888">
			
			<g transform="scale(2.9211295034079843) translate(10, 10)">
				<defs id="SvgjsDefs1403"/><g id="SvgjsG1404" featureKey="root" fill="#000" transform="matrix(1,0,0,1,0,0)"/><g id="SvgjsG1405" featureKey="container1" fill="#000" transform="matrix(1,0,0,1,20,20)"><rect xmlns="http://www.w3.org/2000/svg" width="130" rx="10" ry="10" height="139"/></g><g id="SvgjsG1406" featureKey="symbol1" fill="#ffffff" transform="matrix(1.4919447125913161,0,0,1.4919447125913161,46.20943782833312,50.524165862226056)"><g xmlns="http://www.w3.org/2000/svg"><g><circle fill="none" stroke="#a10115" stroke-width="2" stroke-miterlimit="10" cx="28.5406857" cy="26" r="15"/><polygon fill="none" stroke="#a10115" stroke-width="2" stroke-miterlimit="10" points="30.9881477,29.913044     26.0932217,29.913044 23.6457596,34.1521721 26.0932217,38.391304 30.9881477,38.391304 33.4356117,34.1521721   "/><polygon fill="none" stroke="#a10115" stroke-width="2" stroke-miterlimit="10" points="30.9881477,13.608696     26.0932217,13.608696 23.6457596,17.847826 26.0932217,22.086956 30.9881477,22.086956 33.4356117,17.847826   "/><polygon fill="none" stroke="#a10115" stroke-width="2" stroke-miterlimit="10" points="38.134697,17.8478146     33.4127312,17.8478146 31.0517502,21.9239082 33.4127312,26 38.134697,26 40.4956017,21.9239082   "/><polygon fill="none" stroke="#a10115" stroke-width="2" stroke-miterlimit="10" points="23.6555462,26 18.9423599,26     16.5857677,30.0760803 18.9423599,34.1521606 23.6555462,34.1521606 26.0120621,30.0760803   "/><polygon fill="none" stroke="#a10115" stroke-width="2" stroke-miterlimit="10" points="23.6555462,17.8478146     18.9423599,17.8478146 16.5857677,21.9239082 18.9423599,26 23.6555462,26 26.0120621,21.9239082   "/><polygon fill="none" stroke="#a10115" stroke-width="2" stroke-miterlimit="10" points="38.134697,26 33.4127312,26     31.0517502,30.0760803 33.4127312,34.1521606 38.134697,34.1521606 40.4956017,30.0760803   "/><line fill="none" stroke="#a10115" stroke-width="2" stroke-miterlimit="10" x1="30.9881477" y1="38.391304" x2="32.1206818" y2="40.5691757"/><line fill="none" stroke="#a10115" stroke-width="2" stroke-miterlimit="10" x1="26.0932217" y1="38.391304" x2="24.9605598" y2="40.5691757"/><line fill="none" stroke="#a10115" stroke-width="2" stroke-miterlimit="10" x1="38.0481377" y1="34.3152161" x2="39.4725113" y2="36.2703743"/><line fill="none" stroke="#a10115" stroke-width="2" stroke-miterlimit="10" x1="40.4956017" y1="30.076086" x2="42.8885117" y2="30.076086"/><line fill="none" stroke="#a10115" stroke-width="2" stroke-miterlimit="10" x1="40.4956017" y1="21.923914" x2="42.980175" y2="21.923914"/><line fill="none" stroke="#a10115" stroke-width="2" stroke-miterlimit="10" x1="38.0481377" y1="17.684782" x2="39.1466331" y2="15.3940535"/><line fill="none" stroke="#a10115" stroke-width="2" stroke-miterlimit="10" x1="30.9881477" y1="13.608696" x2="32.2968597" y2="11.4751396"/><line fill="none" stroke="#a10115" stroke-width="2" stroke-miterlimit="10" x1="26.0932217" y1="13.608696" x2="24.6276417" y2="11.4751396"/><line fill="none" stroke="#a10115" stroke-width="2" stroke-miterlimit="10" x1="19.0332336" y1="17.684782" x2="17.6168575" y2="15.722043"/><line fill="none" stroke="#a10115" stroke-width="2" stroke-miterlimit="10" x1="16.5857697" y1="21.923914" x2="14.0572023" y2="21.923914"/><line fill="none" stroke="#a10115" stroke-width="2" stroke-miterlimit="10" x1="16.5857697" y1="30.076086" x2="14.1928596" y2="30.076086"/><line fill="none" stroke="#a10115" stroke-width="2" stroke-miterlimit="10" x1="19.0332336" y1="34.3152161" x2="17.6168575" y2="36.2703743"/></g><path fill="none" stroke="#a10115" stroke-width="2" stroke-miterlimit="10" d="M34.5406837,3c0,0,33.5669136,21.4287281,0,46"/><g><line fill="none" stroke="#a10115" stroke-width="2" stroke-miterlimit="10" x1="7.5406857" y1="12" x2="13.5406857" y2="12"/><line fill="none" stroke="#a10115" stroke-width="2" stroke-miterlimit="10" x1="7.5406857" y1="40" x2="13.5406857" y2="40"/></g><line fill="none" stroke="#a10115" stroke-width="2" stroke-miterlimit="10" x1="2.5406854" y1="26" x2="8.5406857" y2="26"/></g></g><g id="SvgjsG1407" featureKey="text1" fill="#000" transform="matrix(3.7212919969800424,0,0,3.7212919969800424,163.9715073907604,37.39354711290099)"><path d="M11.12 11.12 c0.4 0 0.72 0.32 0.72 0.72 l0 1.48 c0 0.38 -0.32 0.7 -0.72 0.7 l-6.58 0 l0 5.12 c0 0.38 -0.3 0.7 -0.7 0.7 l-1.52 0 c-0.38 0 -0.7 -0.32 -0.7 -0.7 l0 -7.3 c0 -0.4 0.32 -0.72 0.7 -0.72 l8.8 0 z M12.02 5 c0.38 0 0.7 0.32 0.7 0.7 l0 1.46 c0 0.4 -0.32 0.72 -0.7 0.72 l-9.7 0 c-0.38 0 -0.7 -0.32 -0.7 -0.72 l0 -1.46 c0 -0.38 0.32 -0.7 0.7 -0.7 l9.7 0 z M21.42 5 c2.16 0 3.98 0.74 5.38 2.2 c1.36 1.42 2.06 3.2 2.06 5.3 s-0.7 3.88 -2.06 5.3 c-1.4 1.46 -3.22 2.2 -5.38 2.2 s-3.98 -0.74 -5.38 -2.2 c-1.36 -1.42 -2.06 -3.2 -2.06 -5.3 s0.7 -3.88 2.06 -5.3 c1.4 -1.46 3.22 -2.2 5.38 -2.2 z M21.42 17.14 c1.4 0 2.48 -0.44 3.32 -1.32 c0.82 -0.86 1.22 -1.96 1.22 -3.32 s-0.4 -2.44 -1.22 -3.32 c-0.84 -0.88 -1.92 -1.32 -3.32 -1.32 s-2.48 0.44 -3.32 1.32 c-0.82 0.88 -1.22 1.96 -1.22 3.32 s0.4 2.46 1.22 3.32 c0.84 0.88 1.92 1.32 3.32 1.32 z M37.86 5 c2.16 0 3.98 0.74 5.38 2.2 c1.36 1.42 2.06 3.2 2.06 5.3 s-0.7 3.88 -2.06 5.3 c-1.4 1.46 -3.22 2.2 -5.38 2.2 s-3.98 -0.74 -5.38 -2.2 c-1.36 -1.42 -2.06 -3.2 -2.06 -5.3 s0.7 -3.88 2.06 -5.3 c1.4 -1.46 3.22 -2.2 5.38 -2.2 z M37.86 17.14 c1.4 0 2.48 -0.44 3.32 -1.32 c0.82 -0.86 1.22 -1.96 1.22 -3.32 s-0.4 -2.44 -1.22 -3.32 c-0.84 -0.88 -1.92 -1.32 -3.32 -1.32 s-2.48 0.44 -3.32 1.32 c-0.82 0.88 -1.22 1.96 -1.22 3.32 s0.4 2.46 1.22 3.32 c0.84 0.88 1.92 1.32 3.32 1.32 z M57.839999999999996 5 c0.38 0 0.68 0.32 0.68 0.7 l0 1.44 c0 0.38 -0.3 0.7 -0.68 0.7 l-3.94 0 l0 11.14 c0 0.38 -0.32 0.7 -0.7 0.7 l-1.5 0 c-0.4 0 -0.7 -0.32 -0.7 -0.7 l0 -11.14 l-3.94 0 c-0.38 0 -0.7 -0.32 -0.7 -0.7 l0 -1.44 c0 -0.38 0.32 -0.7 0.7 -0.7 l10.78 0 z M70.88 12.1 c0.68 0.44 1.18 1.06 1.5 1.82 c0.18 0.46 0.26 1 0.26 1.58 c0 1.9 -1.04 3.24 -3.02 3.86 c-0.62 0.22 -1.36 0.32 -2.2 0.32 l-6.3 0 c-0.38 0 -0.7 -0.32 -0.7 -0.7 l0 -13.28 c0 -0.38 0.32 -0.7 0.7 -0.7 l5.96 0 c1.62 0 2.88 0.46 3.76 1.38 c0.74 0.74 1.12 1.7 1.12 2.82 c0 1.22 -0.36 2.2 -1.08 2.9 z M67.42 13.7 l-4.1 0 l0 3.16 l4.26 0 c0.76 0 1.34 -0.14 1.7 -0.42 c0.32 -0.26 0.48 -0.6 0.48 -1.06 c0 -0.48 -0.16 -0.84 -0.5 -1.14 c-0.4 -0.36 -1.02 -0.54 -1.84 -0.54 z M68.92 10.06 c0.1 -0.2 0.14 -0.4 0.14 -0.64 c0 -0.26 -0.02 -0.48 -0.1 -0.66 c-0.06 -0.18 -0.14 -0.32 -0.26 -0.44 c-0.34 -0.34 -0.8 -0.5 -1.46 -0.5 l-3.92 0 l0 3.12 l3.76 0 c1.26 0 1.66 -0.5 1.84 -0.88 z M82.44 5.42 l5.6 13.22 c0.06 0.1 0.1 0.22 0.1 0.34 c0 0.38 -0.3 0.7 -0.7 0.7 l0 0 l-1.66 0 c-0.28 0 -0.54 -0.16 -0.64 -0.42 l-1.46 -3.44 l-5.66 0 l-1.44 3.44 c-0.1 0.26 -0.36 0.42 -0.64 0.42 l-1.66 0 c-0.24 0 -0.46 -0.12 -0.58 -0.32 c-0.14 -0.18 -0.16 -0.44 -0.06 -0.64 l5.64 -13.3 c0.1 -0.26 0.36 -0.42 0.64 -0.42 l1.88 0 c0.28 0 0.54 0.16 0.64 0.42 z M80.86 9.06 l-1.66 3.98 l3.32 0 z M99.3 16.84 c0.4 0 0.7 0.32 0.7 0.7 l0 1.44 c0 0.38 -0.3 0.7 -0.7 0.7 l-8.74 0 c-0.38 0 -0.7 -0.32 -0.7 -0.7 l0 -13.28 c0 -0.38 0.32 -0.7 0.7 -0.7 l1.5 0 c0.38 0 0.7 0.32 0.7 0.7 l0 11.14 l6.54 0 z M111.38 16.84 c0.4 0 0.7 0.32 0.7 0.7 l0 1.44 c0 0.38 -0.3 0.7 -0.7 0.7 l-8.74 0 c-0.38 0 -0.7 -0.32 -0.7 -0.7 l0 -13.28 c0 -0.38 0.32 -0.7 0.7 -0.7 l1.5 0 c0.38 0 0.7 0.32 0.7 0.7 l0 11.14 l6.54 0 z M119.61999999999999 11.58 c0.38 0 0.7 0.3 0.7 0.7 l0 1.6 c0 0.38 -0.32 0.7 -0.7 0.7 l-5.52 0 c-0.4 0 -0.7 -0.32 -0.7 -0.7 l0 -1.6 c0 -0.4 0.3 -0.7 0.7 -0.7 l5.52 0 z M133.51999999999998 16.96 c0.4 0 0.7 0.32 0.7 0.72 l0 1.46 c0 0.38 -0.3 0.7 -0.7 0.7 l-9.88 0 c-0.38 0 -0.7 -0.32 -0.7 -0.7 l0 -1.46 c0 -0.4 0.32 -0.72 0.7 -0.72 l9.88 0 z M123.63999999999999 13.86 c-0.38 0 -0.7 -0.32 -0.7 -0.7 l0 -1.5 c0 -0.38 0.32 -0.7 0.7 -0.7 l8.98 0 c0.4 0 0.72 0.32 0.72 0.7 l0 1.5 c0 0.38 -0.32 0.7 -0.72 0.7 l-8.98 0 z M133.51999999999998 5 c0.4 0 0.7 0.32 0.7 0.7 l0 1.46 c0 0.4 -0.3 0.72 -0.7 0.72 l-9.88 0 c-0.38 0 -0.7 -0.32 -0.7 -0.72 l0 -1.46 c0 -0.38 0.32 -0.7 0.7 -0.7 l9.88 0 z M148.35999999999999 5 c0.26 0 0.5 0.14 0.62 0.38 c0.12 0.22 0.1 0.5 -0.04 0.72 l-5.44 7.84 l0 5.04 c0 0.38 -0.32 0.7 -0.7 0.7 l-1.5 0 c-0.38 0 -0.7 -0.32 -0.7 -0.7 l0 -5.04 l-5.46 -7.84 c-0.14 -0.22 -0.16 -0.5 -0.04 -0.72 c0.12 -0.24 0.36 -0.38 0.62 -0.38 l1.82 0 c0.24 0 0.44 0.12 0.58 0.3 l3.92 5.64 l3.92 -5.64 c0.14 -0.18 0.34 -0.3 0.58 -0.3 l1.82 0 z M161.14 5 c0.4 0 0.7 0.32 0.7 0.7 l0 1.44 c0 0.38 -0.3 0.7 -0.7 0.7 l-7.56 0 l0 3.06 l6.68 0 c0.4 0 0.7 0.32 0.7 0.7 l0 1.46 c0 0.38 -0.3 0.7 -0.7 0.7 l-6.68 0 l0 3.08 l7.56 0 c0.4 0 0.7 0.32 0.7 0.7 l0 1.44 c0 0.38 -0.3 0.7 -0.7 0.7 l-9.76 0 c-0.38 0 -0.7 -0.32 -0.7 -0.7 l0 -13.28 c0 -0.38 0.32 -0.7 0.7 -0.7 l9.76 0 z M175.64 14.36 c-0.16 -0.16 -0.24 -0.4 -0.18 -0.62 c0.06 -0.38 0.1 -0.76 0.1 -1.14 c0 -1.38 -0.4 -2.48 -1.22 -3.36 c-0.86 -0.9 -1.98 -1.34 -3.38 -1.34 c-1.42 0 -2.52 0.44 -3.38 1.34 c-0.82 0.88 -1.22 1.98 -1.22 3.36 s0.4 2.48 1.22 3.36 c0.86 0.9 1.96 1.34 3.38 1.34 c0.54 0 1.04 -0.06 1.5 -0.2 l-1.14 -1.14 c-0.12 -0.14 -0.2 -0.32 -0.2 -0.5 s0.08 -0.36 0.2 -0.5 l1.08 -1.08 c0.28 -0.28 0.72 -0.28 1 0 l4.34 4.34 c0.28 0.28 0.28 0.72 0 1 l-1.08 1.08 c-0.12 0.14 -0.3 0.2 -0.5 0.2 c-0.18 0 -0.36 -0.06 -0.5 -0.2 l-0.98 -1 c-1.1 0.6 -2.34 0.9 -3.72 0.9 c-2.2 0 -4.04 -0.74 -5.46 -2.22 c-1.38 -1.44 -2.08 -3.24 -2.08 -5.38 s0.7 -3.94 2.08 -5.38 c1.42 -1.46 3.26 -2.22 5.46 -2.22 s4.04 0.76 5.46 2.24 c1.38 1.42 2.08 3.22 2.08 5.36 c0 0.96 -0.16 1.88 -0.46 2.74 c-0.08 0.22 -0.26 0.4 -0.5 0.44 c-0.24 0.06 -0.48 0 -0.66 -0.18 z M182.6 16.28 c0.38 0 0.7 0.3 0.7 0.7 l0 2.08 c0 0.38 -0.32 0.7 -0.7 0.7 l-1.82 0 c-0.4 0 -0.7 -0.32 -0.7 -0.7 l0 -2.08 c0 -0.4 0.3 -0.7 0.7 -0.7 l1.82 0 z M190.43999999999997 8.22 c-0.52 0.22 -0.98 0.54 -1.34 0.96 c-0.76 0.84 -1.12 1.94 -1.12 3.32 s0.36 2.48 1.12 3.34 c0.78 0.88 1.9 1.3 3.44 1.3 c0.82 0 1.5 -0.2 2.1 -0.6 c0.62 -0.42 1.06 -0.94 1.36 -1.64 c0.1 -0.26 0.36 -0.42 0.64 -0.42 l1.58 0 c0.22 0 0.44 0.1 0.56 0.28 c0.14 0.2 0.18 0.42 0.1 0.64 c-0.5 1.4 -1.32 2.5 -2.44 3.3 c-1.2 0.86 -2.62 1.3 -4.24 1.3 c-2.14 0 -3.9 -0.74 -5.24 -2.22 c-1.24 -1.4 -1.88 -3.18 -1.88 -5.28 s0.64 -3.88 1.88 -5.28 c1.34 -1.48 3.1 -2.22 5.24 -2.22 c1.62 0 3.04 0.44 4.24 1.3 c1.12 0.8 1.94 1.92 2.44 3.3 c0.08 0.22 0.04 0.46 -0.1 0.64 c-0.12 0.18 -0.34 0.28 -0.56 0.28 l-1.58 0 c-0.28 0 -0.54 -0.16 -0.64 -0.42 c-0.3 -0.7 -0.74 -1.22 -1.36 -1.64 c-0.6 -0.4 -1.28 -0.6 -2.1 -0.6 c-0.86 0 -1.56 0.12 -2.1 0.36 z M207.77999999999997 5 c2.16 0 3.98 0.74 5.38 2.2 c1.36 1.42 2.06 3.2 2.06 5.3 s-0.7 3.88 -2.06 5.3 c-1.4 1.46 -3.22 2.2 -5.38 2.2 s-3.98 -0.74 -5.38 -2.2 c-1.36 -1.42 -2.06 -3.2 -2.06 -5.3 s0.7 -3.88 2.06 -5.3 c1.4 -1.46 3.22 -2.2 5.38 -2.2 z M207.77999999999997 17.14 c1.4 0 2.48 -0.44 3.32 -1.32 c0.82 -0.86 1.22 -1.96 1.22 -3.32 s-0.4 -2.44 -1.22 -3.32 c-0.84 -0.88 -1.92 -1.32 -3.32 -1.32 s-2.48 0.44 -3.32 1.32 c-0.82 0.88 -1.22 1.96 -1.22 3.32 s0.4 2.46 1.22 3.32 c0.84 0.88 1.92 1.32 3.32 1.32 z M231.23999999999998 5 c0.38 0 0.7 0.32 0.7 0.7 l0 13.28 c0 0.38 -0.32 0.7 -0.7 0.7 l-1.5 0 c-0.38 0 -0.7 -0.32 -0.7 -0.7 l0 -8.96 l-3.68 4.72 c-0.12 0.16 -0.32 0.26 -0.54 0.26 l0 0 c-0.22 0 -0.42 -0.1 -0.54 -0.26 l-3.76 -4.74 l0 8.98 c0 0.38 -0.32 0.7 -0.7 0.7 l-1.5 0 c-0.38 0 -0.7 -0.32 -0.7 -0.7 l0 -13.28 c0 -0.38 0.32 -0.7 0.7 -0.7 l1.74 0 c0.22 0 0.42 0.1 0.56 0.28 l4.2 5.56 l4.12 -5.56 c0.12 -0.18 0.34 -0.28 0.56 -0.28 l1.74 0 z"/></g><g id="SvgjsG1408" featureKey="text3" fill="#000" transform="matrix(3.6,0,0,3.6,170,129)"><path d=""/></g>
			</g>
		</svg>
	